<svg width="133" height="30" viewBox="0 0 133 30" fill="none" xmlns="http://www.w3.org/2000/svg">
<path d="M116.508 15.689H110.948C110.846 14.9146 110.586 14.2163 110.167 13.5942C109.557 12.7563 108.612 12.3374 107.329 12.3374C105.501 12.3374 104.251 13.2451 103.578 15.0605C103.223 16.0254 103.045 17.3076 103.045 18.9072C103.045 20.4307 103.223 21.6558 103.578 22.5825C104.225 24.3091 105.444 25.1724 107.234 25.1724C108.504 25.1724 109.405 24.8296 109.938 24.144C110.472 23.4585 110.795 22.5698 110.91 21.478H116.451C116.324 23.1284 115.727 24.6899 114.661 26.1626C112.96 28.5366 110.44 29.7236 107.101 29.7236C103.762 29.7236 101.306 28.7334 99.7313 26.7529C98.1571 24.7725 97.37 22.2017 97.37 19.0405C97.37 15.4731 98.2396 12.6992 99.9789 10.7188C101.718 8.73828 104.118 7.74805 107.177 7.74805C109.78 7.74805 111.906 8.33203 113.557 9.5C115.22 10.668 116.203 12.731 116.508 15.689Z" fill="black"/>
<path d="M94.0558 8.24316V29H88.5524V8.24316H94.0558ZM94.0558 0.759277V5.76758H88.5524V0.759277H94.0558Z" fill="black"/>
<path d="M84.3051 0.96875V29H79.0302V26.1245C78.2557 27.356 77.3734 28.251 76.3832 28.8096C75.3929 29.3682 74.1615 29.6475 72.6888 29.6475C70.264 29.6475 68.2201 28.6699 66.557 26.7148C64.9066 24.7471 64.0814 22.2271 64.0814 19.1548C64.0814 15.6128 64.8939 12.8262 66.5189 10.7949C68.1566 8.76367 70.3402 7.74805 73.0697 7.74805C74.3265 7.74805 75.4437 8.02734 76.4213 8.58594C77.3988 9.13184 78.1923 9.89355 78.8016 10.8711V0.96875H84.3051ZM69.6801 18.7549C69.6801 20.6719 70.0609 22.2017 70.8226 23.3442C71.5717 24.4995 72.7142 25.0771 74.2504 25.0771C75.7865 25.0771 76.9545 24.5059 77.7543 23.3633C78.5541 22.2207 78.954 20.7417 78.954 18.9263C78.954 16.3872 78.3129 14.5718 77.0306 13.48C76.2435 12.8198 75.3295 12.4897 74.2885 12.4897C72.7015 12.4897 71.5336 13.0928 70.7845 14.2988C70.0482 15.4922 69.6801 16.9775 69.6801 18.7549Z" fill="black"/>
<path d="M61.4337 13.2515C59.2501 13.2515 57.7838 13.9624 57.0347 15.3843C56.6158 16.1841 56.4063 17.4155 56.4063 19.0786V29H50.941V8.24316H56.1207V11.8613C56.9586 10.4775 57.6885 9.53174 58.3106 9.02393C59.3262 8.17334 60.6465 7.74805 62.2715 7.74805C62.3731 7.74805 62.4556 7.75439 62.5191 7.76709C62.5953 7.76709 62.754 7.77344 62.9952 7.78613V13.3467C62.6524 13.3086 62.3477 13.2832 62.0811 13.2705C61.8145 13.2578 61.5987 13.2515 61.4337 13.2515Z" fill="black"/>
<path d="M45.2463 10.8711C46.9983 13.0674 47.8743 15.6636 47.8743 18.6597C47.8743 21.7065 46.9983 24.3154 45.2463 26.4863C43.4944 28.6445 40.8347 29.7236 37.2673 29.7236C33.7 29.7236 31.0403 28.6445 29.2883 26.4863C27.5364 24.3154 26.6604 21.7065 26.6604 18.6597C26.6604 15.6636 27.5364 13.0674 29.2883 10.8711C31.0403 8.6748 33.7 7.57666 37.2673 7.57666C40.8347 7.57666 43.4944 8.6748 45.2463 10.8711ZM37.2483 12.166C35.6614 12.166 34.4363 12.731 33.573 13.8608C32.7224 14.978 32.2971 16.5776 32.2971 18.6597C32.2971 20.7417 32.7224 22.3477 33.573 23.4775C34.4363 24.6074 35.6614 25.1724 37.2483 25.1724C38.8352 25.1724 40.054 24.6074 40.9045 23.4775C41.7551 22.3477 42.1804 20.7417 42.1804 18.6597C42.1804 16.5776 41.7551 14.978 40.9045 13.8608C40.054 12.731 38.8352 12.166 37.2483 12.166Z" fill="black"/>
<path d="M23.6699 29H17.8047L6.34082 9.06201V29H0.875488V0.930664H7.02637L18.2046 20.5259V0.930664H23.6699V29Z" fill="black"/>
<path d="M124.259 7.48143V8.81274H122.009V15H120.428V8.81274H118.168V7.48143H124.259ZM126.411 15H124.947V7.48143H127.233L128.6 13.3932L129.956 7.48143H132.216V15H130.752V9.91451C130.752 9.76828 130.754 9.56425 130.757 9.30241C130.761 9.03717 130.762 8.83314 130.762 8.69032L129.339 15H127.814L126.401 8.69032C126.401 8.83314 126.403 9.03717 126.406 9.30241C126.41 9.56425 126.411 9.76828 126.411 9.91451V15Z" fill="black"/>
</svg>
