<svg width="128" height="29" viewBox="0 0 128 29" fill="none" xmlns="http://www.w3.org/2000/svg">
<path d="M113.448 14.5859H108.456C107.988 11.8559 106.35 10.7249 104.244 10.7249C101.163 10.7249 99.5253 13.1819 99.5253 17.6669C99.5253 22.0739 101.241 24.5309 104.4 24.5309C106.545 24.5309 108.066 23.3609 108.573 20.9819H113.604C112.668 26.2079 109.002 28.6649 104.283 28.6649C98.1213 28.6649 94.3773 24.4529 94.3773 17.6669C94.3773 10.5689 98.2383 6.59094 104.244 6.59094C109.002 6.59094 112.746 9.24294 113.448 14.5859Z" fill="black"/>
<path d="M86.1827 4.836V0H91.1747V4.836H86.1827ZM86.1827 28.08V7.176H91.1747V28.08H86.1827Z" fill="black"/>
<path d="M71.5221 28.665C66.0621 28.665 62.7081 24.492 62.7081 17.667C62.7081 10.569 66.1401 6.591 71.5221 6.591C73.8231 6.591 75.7341 7.566 77.0211 9.438V0H82.0131V28.08H77.0211V25.701C75.6951 27.612 73.8231 28.665 71.5221 28.665ZM72.4191 24.531C75.4221 24.531 77.0211 22.113 77.0211 17.667C77.0211 13.221 75.3441 10.725 72.4191 10.725C69.4551 10.725 67.8561 13.182 67.8561 17.667C67.8561 22.074 69.4941 24.531 72.4191 24.531Z" fill="black"/>
<path d="M49.0672 28.0799V7.17594H54.0592V10.2179C55.4242 7.72194 57.5302 6.59094 59.7922 6.59094C60.6502 6.59094 61.4302 6.82494 61.8202 7.17594V11.5049C61.1572 11.3099 60.4162 11.2319 59.5192 11.2319C55.7362 11.2319 54.0592 13.4939 54.0592 16.9649V28.0799H49.0672Z" fill="black"/>
<path d="M35.844 28.6649C29.643 28.6649 25.821 24.4919 25.821 17.6669C25.821 10.5689 29.76 6.59094 35.844 6.59094C42.006 6.59094 45.828 10.8029 45.828 17.6669C45.828 24.6869 41.889 28.6649 35.844 28.6649ZM35.844 24.5309C39.003 24.5309 40.68 22.1129 40.68 17.6669C40.68 13.2209 38.964 10.7249 35.844 10.7249C32.646 10.7249 30.969 13.1819 30.969 17.6669C30.969 22.0739 32.685 24.5309 35.844 24.5309Z" fill="black"/>
<path d="M0 28.0799V1.55994H5.538L15.366 17.3159L17.199 20.9429L17.004 1.55994H22.23V28.0799H16.731L6.903 12.3629L5.031 8.65794L5.265 28.0799H0Z" fill="black"/>
<path d="M121.798 10.08H120.335V2.5614H122.62L123.987 8.47322L125.344 2.5614H127.603V10.08H126.139V4.99448C126.139 4.84826 126.141 4.64423 126.144 4.38239C126.148 4.11714 126.149 3.91311 126.149 3.77029L124.726 10.08H123.201L121.788 3.77029C121.788 3.91311 121.79 4.11714 121.793 4.38239C121.797 4.64423 121.798 4.84826 121.798 4.99448V10.08Z" fill="black"/>
<path d="M119.646 2.5614V3.89271H117.396V10.08H115.815V3.89271H113.555V2.5614H119.646Z" fill="black"/>
</svg>
