<?xml version="1.0" encoding="UTF-8"?> <svg xmlns="http://www.w3.org/2000/svg" width="258.417" height="82.286" viewBox="0 0 258.417 82.286"><defs><style>.a{fill:#fff;}.b{fill:#02acb1;}</style></defs><g transform="translate(-32.583 -119.857)"><path class="a" d="M192.907,202.143a4.3,4.3,0,0,1-3.275-1.264,4.895,4.895,0,0,1-1.2-3.51,5.424,5.424,0,0,1,1.114-3.6,3.7,3.7,0,0,1,2.993-1.332,3.531,3.531,0,0,1,2.784,1.157,4.432,4.432,0,0,1,1.025,3.053v.9H189.9a3.715,3.715,0,0,0,.833,2.5,2.88,2.88,0,0,0,2.225.853,7.537,7.537,0,0,0,2.988-.631v1.264a7.541,7.541,0,0,1-1.421.465A7.994,7.994,0,0,1,192.907,202.143Zm-.384-8.514a2.315,2.315,0,0,0-1.8.734,3.375,3.375,0,0,0-.79,2.032h4.893a3.113,3.113,0,0,0-.6-2.053A2.1,2.1,0,0,0,192.523,193.629Z"></path><path class="a" d="M210.084,201.972v-6.055a2.446,2.446,0,0,0-.52-1.708,2.128,2.128,0,0,0-1.632-.563,2.693,2.693,0,0,0-2.152.794,4.013,4.013,0,0,0-.683,2.622v4.91H203.68v-9.359h1.153l.23,1.281h.068a2.893,2.893,0,0,1,1.222-1.072,3.968,3.968,0,0,1,1.75-.38,3.557,3.557,0,0,1,2.545.815,3.474,3.474,0,0,1,.854,2.609v6.106Z"></path><path class="a" d="M230.2,201.972h-1.418V188.684H230.2Z"></path><path class="a" d="M238.064,191.161q.411-.529.884-1.281a14.9,14.9,0,0,0,.748-1.306h1.725v.179a15.926,15.926,0,0,1-2.409,2.621h-.948Zm1.478,10.811h-1.418v-9.359h1.418Z"></path><path class="a" d="M253.867,201.972v-6.055a2.446,2.446,0,0,0-.521-1.708,2.126,2.126,0,0,0-1.631-.563,2.691,2.691,0,0,0-2.152.794,4.007,4.007,0,0,0-.683,2.622v4.91h-1.418v-9.359h1.153l.231,1.281h.068a2.89,2.89,0,0,1,1.221-1.072,3.973,3.973,0,0,1,1.751-.38,3.56,3.56,0,0,1,2.545.815,3.478,3.478,0,0,1,.854,2.609v6.106Z"></path><path class="a" d="M267.064,202.143a4.3,4.3,0,0,1-3.275-1.264,4.895,4.895,0,0,1-1.2-3.51,5.424,5.424,0,0,1,1.114-3.6,3.7,3.7,0,0,1,2.993-1.332,3.53,3.53,0,0,1,2.784,1.157,4.432,4.432,0,0,1,1.025,3.053v.9h-6.448a3.715,3.715,0,0,0,.833,2.5,2.88,2.88,0,0,0,2.225.853,7.537,7.537,0,0,0,2.988-.631v1.264a7.542,7.542,0,0,1-1.421.465A7.994,7.994,0,0,1,267.064,202.143Zm-.384-8.514a2.315,2.315,0,0,0-1.8.734,3.375,3.375,0,0,0-.79,2.032h4.893a3.113,3.113,0,0,0-.6-2.053A2.1,2.1,0,0,0,266.68,193.629Z"></path><path class="a" d="M283.592,201.972l-.282-1.332h-.068a3.934,3.934,0,0,1-1.4,1.191,4.252,4.252,0,0,1-1.738.312,3.119,3.119,0,0,1-2.181-.718,2.615,2.615,0,0,1-.791-2.041q0-2.834,4.535-2.971l1.588-.052v-.58a2.377,2.377,0,0,0-.473-1.627,1.952,1.952,0,0,0-1.517-.525,6.181,6.181,0,0,0-2.647.717l-.435-1.084a6.669,6.669,0,0,1,1.515-.59,6.589,6.589,0,0,1,1.653-.213,3.564,3.564,0,0,1,2.481.743,3.1,3.1,0,0,1,.806,2.382v6.388Zm-3.2-1a2.879,2.879,0,0,0,2.08-.726,2.686,2.686,0,0,0,.755-2.033v-.845l-1.418.06a5.162,5.162,0,0,0-2.438.525,1.585,1.585,0,0,0-.747,1.447,1.46,1.46,0,0,0,.466,1.17A1.928,1.928,0,0,0,280.39,200.973Z"></path><path class="a" d="M32.583,168.337V121.209H50.361a42.916,42.916,0,0,1,7.168.45,14.205,14.205,0,0,1,5.819,2.2,11.567,11.567,0,0,1,3.777,4.549,15.337,15.337,0,0,1-2.395,16.6q-3.825,4.164-13.823,4.163H38.82v19.16Zm6.237-24.722H51q6.042,0,8.583-2.25a8.017,8.017,0,0,0,2.539-6.332,8.518,8.518,0,0,0-1.495-5.064,6.99,6.99,0,0,0-3.937-2.781,26.694,26.694,0,0,0-5.819-.418H38.82Z"></path><path class="a" d="M73.6,151.267q0-9.484,5.272-14.048a15.886,15.886,0,0,1,10.738-3.794,15.318,15.318,0,0,1,11.508,4.613q4.467,4.613,4.468,12.746,0,6.591-1.977,10.367a13.985,13.985,0,0,1-5.754,5.867,16.743,16.743,0,0,1-8.245,2.09,15.345,15.345,0,0,1-11.59-4.6Q73.6,159.915,73.6,151.267Zm5.947,0q0,6.557,2.861,9.82a9.525,9.525,0,0,0,14.37-.016q2.861-3.279,2.861-10,0-6.333-2.877-9.6a9.54,9.54,0,0,0-14.354-.016Q79.55,144.708,79.55,151.267Z"></path><path class="a" d="M112.244,168.337V121.209h5.786v47.128Z"></path><path class="a" d="M128.735,129.953l4.275-9H140.6l-7.072,9Zm.29,38.384V134.2h5.786v34.141Z"></path><path class="a" d="M157.925,163.161l.835,5.111a21.462,21.462,0,0,1-4.372.515,9.9,9.9,0,0,1-4.886-1,5.573,5.573,0,0,1-2.443-2.62q-.708-1.623-.708-6.831V138.7h-4.243v-4.5h4.243v-8.454l5.755-3.472V134.2h5.819v4.5h-5.819V158.66a10.074,10.074,0,0,0,.3,3.183,2.4,2.4,0,0,0,1,1.125,3.841,3.841,0,0,0,1.977.418A18.84,18.84,0,0,0,157.925,163.161Z"></path><path class="a" d="M163.615,127.864v-6.655H169.4v6.655Zm0,40.473V134.2H169.4v34.141Z"></path><path class="b" d="M175.486,167.469l9.921-46.938h9.824L190.286,143.2l5.009-6.71,13.259-15.957h11.59L201.074,143l9.342,24.465H199.565l-6.774-19.006-4.014,2.247-3.5,16.759Z"></path><path class="b" d="M210.127,167.469l24.592-46.938H246.7l4.719,46.938h-9.535l-.77-11.173H225.923L220.4,167.469Zm19.809-19.52h10.691l-.835-12.1q-.128-1.926-.256-3.884t-.065-4.013h-.16q-.61,1.766-1.413,3.531t-1.8,3.756Z"></path><path class="b" d="M268.109,168.11a25.451,25.451,0,0,1-6.469-.77,16.368,16.368,0,0,1-4.96-2.119v-8.8a32,32,0,0,0,5.731,2.553,18.514,18.514,0,0,0,5.762.915,14.106,14.106,0,0,0,3.034-.306,7.567,7.567,0,0,0,2.424-.946,4.8,4.8,0,0,0,1.606-1.606,4.291,4.291,0,0,0,.577-2.247,5.987,5.987,0,0,0-.723-3.066,8.8,8.8,0,0,0-1.99-2.295q-1.268-1.059-2.937-2.28a33.782,33.782,0,0,1-3.8-3.21,15.284,15.284,0,0,1-3.034-4.19,12.448,12.448,0,0,1-1.188-5.6,14.177,14.177,0,0,1,1.14-5.747,13.242,13.242,0,0,1,3.259-4.527,14.724,14.724,0,0,1,5.088-2.97,19.946,19.946,0,0,1,6.63-1.043,27.249,27.249,0,0,1,6.726.787,25.543,25.543,0,0,1,6.02,2.391l-3.5,7.481a27.426,27.426,0,0,0-4.767-1.782,17.592,17.592,0,0,0-4.479-.594,7.659,7.659,0,0,0-2.424.369,5.81,5.81,0,0,0-1.926,1.06,4.786,4.786,0,0,0-1.268,1.653,5.1,5.1,0,0,0-.45,2.184,5.587,5.587,0,0,0,.691,2.857,7.749,7.749,0,0,0,1.99,2.2q1.3,1.011,3.13,2.231a21.277,21.277,0,0,1,4.319,3.644,13.469,13.469,0,0,1,2.568,4.222,14.322,14.322,0,0,1,.85,5.04,14.058,14.058,0,0,1-1.38,6.421,12.688,12.688,0,0,1-3.8,4.527,16.853,16.853,0,0,1-5.617,2.681A25.553,25.553,0,0,1,268.109,168.11Z"></path><circle class="a" cx="5.281" cy="5.281" r="5.281" transform="translate(99.933 180.535)"></circle><circle class="a" cx="5.281" cy="5.281" r="5.281" transform="translate(140.674 180.535)"></circle><circle class="a" cx="5.281" cy="5.281" r="5.281" transform="translate(167.834 191.097)"></circle><path class="a" d="M173.87,197.887H144.446V187.325H105.968v-1.509h39.987v10.563H173.87Z"></path></g></svg> 