<?xml version="1.0" encoding="UTF-8"?> <svg xmlns="http://www.w3.org/2000/svg" width="147.669" height="45.044" viewBox="0 0 147.669 45.044"><defs><style>.a{fill:#004e82;}</style></defs><g transform="translate(-1740.831 -21.502)"><path d="M1805.106,33.657h-1.663l-4.431-5.9-1.272,1.131v4.764h-1.414V21.5h1.414V27.53l5.512-6.028h1.671l-4.889,5.279Z"></path><path d="M1817.215,27.658a6.53,6.53,0,0,1-1.475,4.52,5.229,5.229,0,0,1-4.1,1.645,5.3,5.3,0,0,1-4.145-1.617,6.58,6.58,0,0,1-1.459-4.564,6.5,6.5,0,0,1,1.463-4.531,5.333,5.333,0,0,1,4.157-1.609,5.221,5.221,0,0,1,4.091,1.637A6.518,6.518,0,0,1,1817.215,27.658Zm-9.685,0a5.622,5.622,0,0,0,1.051,3.689,4.345,4.345,0,0,0,6.107,0,5.7,5.7,0,0,0,1.031-3.693A5.646,5.646,0,0,0,1814.692,24a3.706,3.706,0,0,0-3.039-1.249A3.779,3.779,0,0,0,1808.581,24,5.562,5.562,0,0,0,1807.53,27.658Z"></path><path d="M1829.141,33.657h-1.613l-6.643-10.2h-.066q.132,1.8.133,3.292v6.909h-1.306V21.5h1.6l6.626,10.16h.067q-.018-.225-.075-1.443t-.042-1.742V21.5h1.322Z"></path><path d="M1833.556,28.6v5.055h-1.413V21.5h3.334a5.249,5.249,0,0,1,3.3.856,3.106,3.106,0,0,1,1.068,2.578,3.229,3.229,0,0,1-2.445,3.259l3.3,5.462h-1.671l-2.943-5.055Zm0-1.214h1.937a3.346,3.346,0,0,0,2.195-.594,2.211,2.211,0,0,0,.7-1.784,2.029,2.029,0,0,0-.711-1.737,3.85,3.85,0,0,0-2.282-.532h-1.838Z"></path><path d="M1851.37,33.657l-1.513-3.866h-4.872l-1.5,3.866h-1.43l4.785-12.154h1.229l4.761,12.154Zm-1.953-5.138L1848,24.753q-.275-.716-.565-1.755a15.855,15.855,0,0,1-.524,1.755l-1.43,3.766Z"></path><path d="M1864.207,27.463a6.138,6.138,0,0,1-1.633,4.6,6.468,6.468,0,0,1-4.7,1.592h-3.367V21.5h3.724a5.96,5.96,0,0,1,4.407,1.571A5.937,5.937,0,0,1,1864.207,27.463Zm-1.5.05a4.893,4.893,0,0,0-1.193-3.583,4.782,4.782,0,0,0-3.546-1.206h-2.054v9.711h1.721a5.232,5.232,0,0,0,3.8-1.243A4.922,4.922,0,0,0,1862.711,27.513Z"></path><path d="M1803.806,50.1l-.881-2.893h-4.432l-.881,2.893h-2.777l4.271-12.155h3.186l4.291,12.155Zm-1.5-5.054q-1.223-3.933-1.376-4.448c-.1-.344-.176-.616-.221-.815q-.274,1.063-1.571,5.263Z"></path><path d="M1818.555,43.906a5.985,5.985,0,0,1-1.709,4.6,6.966,6.966,0,0,1-4.934,1.6h-3.442V37.944h3.816a6.427,6.427,0,0,1,4.623,1.572A5.781,5.781,0,0,1,1818.555,43.906Zm-2.677.066q0-3.915-3.459-3.916h-1.372v7.915h1.106Q1815.878,47.971,1815.878,43.972Z"></path><path d="M1828.074,50.1h-7V37.944h7v2.112h-4.423v2.669h4.116v2.112h-4.116v3.134h4.423Z"></path><path d="M1841.574,50.1H1838.3l-5.287-9.195h-.075q.157,2.436.157,3.475V50.1h-2.3V37.944h3.25l5.28,9.1h.058q-.125-2.368-.125-3.35V37.944h2.32Z"></path><path d="M1852.475,50.1l-.881-2.893h-4.432l-.881,2.893H1843.5l4.271-12.155h3.186l4.291,12.155Zm-1.5-5.054q-1.221-3.933-1.376-4.448c-.1-.344-.176-.616-.22-.815q-.274,1.063-1.571,5.263Z"></path><path d="M1866.545,37.944v7.865a4.535,4.535,0,0,1-.6,2.362,3.924,3.924,0,0,1-1.742,1.554,6.217,6.217,0,0,1-2.694.541,5.155,5.155,0,0,1-3.641-1.2,4.259,4.259,0,0,1-1.3-3.288V37.944h2.569v7.441a3.114,3.114,0,0,0,.565,2.062,2.351,2.351,0,0,0,1.871.657,2.3,2.3,0,0,0,1.833-.661,3.13,3.13,0,0,0,.569-2.074V37.944Z"></path><path d="M1876.173,50.1h-7V37.944h7v2.112h-4.423v2.669h4.116v2.112h-4.116v3.134h4.423Z"></path><path d="M1881.367,45.435V50.1h-2.578V37.944h3.542a6.067,6.067,0,0,1,3.667.9,3.6,3.6,0,0,1,.6,4.648,3.913,3.913,0,0,1-1.671,1.31q2.743,4.1,3.575,5.295h-2.86l-2.9-4.664Zm0-2.1h.831a3.176,3.176,0,0,0,1.8-.407,1.456,1.456,0,0,0,.582-1.281,1.33,1.33,0,0,0-.594-1.23,3.608,3.608,0,0,0-1.842-.366h-.781Z"></path><path d="M1803.54,63a3.141,3.141,0,0,1-1.185,2.594,5.142,5.142,0,0,1-3.3.948,7.737,7.737,0,0,1-3.442-.732V63.42a14.191,14.191,0,0,0,2.082.773,6.152,6.152,0,0,0,1.559.224,2.216,2.216,0,0,0,1.3-.324,1.109,1.109,0,0,0,.454-.964,1.066,1.066,0,0,0-.2-.636,2.207,2.207,0,0,0-.586-.536,15.087,15.087,0,0,0-1.575-.824,7.462,7.462,0,0,1-1.672-1.006,3.76,3.76,0,0,1-.889-1.122,3.2,3.2,0,0,1-.333-1.5,3.142,3.142,0,0,1,1.093-2.535,4.547,4.547,0,0,1,3.023-.923,7.171,7.171,0,0,1,1.808.224,12.606,12.606,0,0,1,1.8.632l-.832,2a12.1,12.1,0,0,0-1.608-.557,5.2,5.2,0,0,0-1.252-.158,1.659,1.659,0,0,0-1.122.341,1.123,1.123,0,0,0-.391.889,1.1,1.1,0,0,0,.158.6,1.733,1.733,0,0,0,.5.49,15.485,15.485,0,0,0,1.634.853A6.5,6.5,0,0,1,1802.908,61,3.192,3.192,0,0,1,1803.54,63Z"></path><path d="M1810.773,66.545H1808.2V56.535h-3.3V54.39h9.178v2.145h-3.3Z"></path><path d="M1816.416,66.545V54.39h2.578V66.545Z"></path><path d="M1824.477,66.545h-2.535V54.39h6.967V56.5h-4.432v3.134h4.124v2.1h-4.124Z"></path><path d="M1836.5,66.545h-2.577V56.535h-3.3V54.39h9.179v2.145h-3.3Z"></path><path d="M1851.762,54.39v7.691a4.532,4.532,0,0,1-.6,2.361A3.933,3.933,0,0,1,1849.417,66a6.232,6.232,0,0,1-2.694.54,5.157,5.157,0,0,1-3.641-1.2,4.261,4.261,0,0,1-1.3-3.289V54.39h2.569v7.267a3.114,3.114,0,0,0,.565,2.061,2.351,2.351,0,0,0,1.871.657,2.3,2.3,0,0,0,1.833-.661,3.129,3.129,0,0,0,.57-2.074V54.39Z"></path><path d="M1865.6,66.545h-3.275l-5.288-9.195h-.075q.157,2.436.158,3.475v5.72h-2.3V54.39h3.251l5.279,9.1h.058q-.123-2.368-.124-3.35V54.39h2.319Z"></path><path d="M1873.275,59.554h4.823v6.3a13.554,13.554,0,0,1-2.208.536,14.311,14.311,0,0,1-2.116.154,5.353,5.353,0,0,1-4.2-1.617,6.723,6.723,0,0,1-1.451-4.643,6.127,6.127,0,0,1,1.683-4.59,6.4,6.4,0,0,1,4.669-1.646,9.031,9.031,0,0,1,3.608.748l-.857,2.062a6.116,6.116,0,0,0-2.768-.665,3.419,3.419,0,0,0-2.677,1.122,4.353,4.353,0,0,0-1.006,3.018,4.842,4.842,0,0,0,.811,3.022,2.8,2.8,0,0,0,2.357,1.044,8.4,8.4,0,0,0,1.637-.166V61.7h-2.3Z"></path><path class="a" d="M1740.831,21.5V66.546h15.479L1782.156,21.5Z"></path><path class="a" d="M1770.785,57.763l-5.039,8.782h20.128V57.763Z"></path><path class="a" d="M1785.874,50.228V31.468l-10.764,18.76Z"></path></g></svg> 