<?xml version="1.0" encoding="UTF-8"?>
<svg id="Layer_2" data-name="Layer 2" xmlns="http://www.w3.org/2000/svg" viewBox="0 0 115.52 48.26">
  <defs>
    <style>
      .cls-1 {
        fill: #02acb1;
      }
    </style>
  </defs>
  <g id="Layer_1-2" data-name="Layer 1">
    <g>
      <path class="cls-1" d="M0,47.61L9.92.68h9.82l-4.95,22.67,5.01-6.71L33.07.68h11.59l-19.07,22.47,9.34,24.46h-10.85l-6.77-19.01-4.01,2.25-3.5,16.76H0Z"/>
      <path class="cls-1" d="M34.64,47.61L59.23.68h11.98l4.72,46.94h-9.54l-.77-11.17h-15.19l-5.52,11.17h-10.27ZM54.45,28.09h10.69l-.84-12.1c-.09-1.28-.17-2.58-.26-3.88-.09-1.31-.11-2.64-.07-4.01h-.16c-.41,1.18-.88,2.35-1.41,3.53-.54,1.18-1.14,2.43-1.8,3.76l-6.16,12.71Z"/>
      <path class="cls-1" d="M92.62,48.26c-2.18.02-4.35-.24-6.47-.77-1.76-.43-3.44-1.14-4.96-2.12v-8.8c1.82,1.04,3.74,1.89,5.73,2.55,1.86.61,3.81.92,5.76.91,1.02,0,2.04-.09,3.03-.31.86-.17,1.68-.49,2.42-.95.66-.4,1.21-.95,1.61-1.61.39-.68.59-1.46.58-2.25.04-1.07-.21-2.13-.72-3.07-.53-.87-1.2-1.65-1.99-2.29-.85-.71-1.82-1.47-2.94-2.28-1.34-.98-2.61-2.05-3.8-3.21-1.24-1.21-2.27-2.63-3.03-4.19-.83-1.75-1.23-3.67-1.19-5.6-.02-1.97.36-3.93,1.14-5.75.75-1.72,1.86-3.27,3.26-4.53,1.48-1.32,3.21-2.33,5.09-2.97C98.28.33,100.52-.03,102.77,0c2.27-.02,4.53.25,6.73.79,2.1.54,4.12,1.34,6.02,2.39l-3.5,7.48c-1.53-.74-3.13-1.34-4.77-1.78-1.46-.39-2.97-.59-4.48-.59-.82,0-1.64.12-2.42.37-.7.23-1.36.59-1.93,1.06-.54.45-.97,1.02-1.27,1.65-.31.69-.46,1.43-.45,2.18-.03,1,.21,1.98.69,2.86.52.85,1.19,1.6,1.99,2.2.87.67,1.91,1.42,3.13,2.23,1.6,1.02,3.05,2.24,4.32,3.64,1.11,1.24,1.98,2.67,2.57,4.22.58,1.62.87,3.32.85,5.04.05,2.22-.42,4.42-1.38,6.42-.89,1.79-2.19,3.34-3.8,4.53-1.69,1.23-3.59,2.14-5.62,2.68-2.23.6-4.53.9-6.83.88Z"/>
    </g>
  </g>
</svg>