<?xml version="1.0" encoding="UTF-8"?>
<svg id="Layer_2" data-name="Layer 2" xmlns="http://www.w3.org/2000/svg" viewBox="0 0 258.42 82.29">
  <defs>
    <style>
      .cls-1 {
        fill: #02acb1;
      }

      .cls-2 {
        fill: #004682;
      }
    </style>
  </defs>
  <g id="Layer_1-2" data-name="Layer 1">
    <g>
      <path class="cls-2" d="M160.32,82.29c-1.22.06-2.41-.4-3.27-1.26-.84-.97-1.28-2.23-1.2-3.51-.07-1.29.32-2.57,1.11-3.6.74-.89,1.84-1.38,2.99-1.33,1.05-.05,2.08.37,2.78,1.16.71.85,1.08,1.94,1.02,3.05v.9h-6.45c-.04.91.26,1.8.83,2.5.58.59,1.39.9,2.23.85,1.03,0,2.05-.22,2.99-.63v1.26c-.46.2-.93.36-1.42.46-.53.1-1.08.15-1.62.15ZM159.94,73.77c-.68-.03-1.34.24-1.8.73-.48.57-.76,1.29-.79,2.03h4.89c.05-.73-.16-1.46-.6-2.05-.43-.49-1.06-.75-1.7-.71Z"/>
      <path class="cls-2" d="M177.5,82.12v-6.05c.05-.61-.14-1.22-.52-1.71-.44-.41-1.03-.61-1.63-.56-.8-.07-1.59.22-2.15.79-.52.77-.77,1.7-.68,2.62v4.91h-1.42v-9.36h1.15l.23,1.28h.07c.3-.47.72-.84,1.22-1.07.55-.26,1.15-.39,1.75-.38.92-.07,1.83.22,2.54.82.63.72.94,1.66.85,2.61v6.11h-1.42Z"/>
      <path class="cls-2" d="M197.62,82.12h-1.42v-13.29h1.42v13.29Z"/>
      <path class="cls-2" d="M205.48,71.31c.27-.35.57-.78.88-1.28.27-.42.52-.86.75-1.31h1.73v.18c-.7.96-1.51,1.84-2.41,2.62h-.95v-.21ZM206.96,82.12h-1.42v-9.36h1.42v9.36Z"/>
      <path class="cls-2" d="M221.28,82.12v-6.05c.05-.61-.14-1.22-.52-1.71-.44-.41-1.03-.61-1.63-.56-.8-.07-1.59.22-2.15.79-.53.77-.77,1.7-.68,2.62v4.91h-1.42v-9.36h1.15l.23,1.28h.07c.3-.47.72-.84,1.22-1.07.55-.26,1.15-.39,1.75-.38.92-.07,1.83.22,2.54.82.63.72.94,1.66.85,2.61v6.11h-1.42Z"/>
      <path class="cls-2" d="M234.48,82.29c-1.22.06-2.41-.4-3.27-1.26-.85-.97-1.28-2.23-1.2-3.51-.07-1.29.32-2.57,1.11-3.6.74-.89,1.84-1.38,2.99-1.33,1.05-.05,2.08.37,2.78,1.16.71.85,1.08,1.94,1.02,3.05v.9h-6.45c-.04.91.26,1.8.83,2.5.58.59,1.39.9,2.23.85,1.03,0,2.05-.22,2.99-.63v1.26c-.46.2-.93.36-1.42.46-.53.1-1.08.15-1.62.15ZM234.1,73.77c-.68-.03-1.34.24-1.8.73-.48.57-.76,1.29-.79,2.03h4.89c.05-.73-.16-1.46-.6-2.05-.43-.49-1.06-.75-1.7-.71Z"/>
      <path class="cls-2" d="M251.01,82.12l-.28-1.33h-.07c-.37.5-.85.91-1.4,1.19-.55.22-1.14.33-1.74.31-.79.05-1.57-.21-2.18-.72-.55-.53-.84-1.28-.79-2.04,0-1.89,1.51-2.88,4.54-2.97l1.59-.05v-.58c.05-.58-.12-1.16-.47-1.63-.41-.38-.96-.58-1.52-.52-.92.04-1.83.28-2.65.72l-.43-1.08c.48-.26.99-.46,1.52-.59.54-.14,1.1-.21,1.65-.21.89-.07,1.78.19,2.48.74.59.64.89,1.51.81,2.38v6.39h-1.05ZM247.81,81.12c.76.04,1.51-.22,2.08-.73.53-.54.8-1.28.76-2.03v-.85l-1.42.06c-.84-.03-1.68.15-2.44.52-.5.31-.78.86-.75,1.45-.03.44.14.87.47,1.17.37.29.83.43,1.3.4h0Z"/>
      <path class="cls-2" d="M0,48.48V1.35h17.78c2.4-.05,4.8.1,7.17.45,2.08.29,4.07,1.05,5.82,2.2,1.63,1.16,2.93,2.73,3.78,4.55,2.57,5.52,1.63,12.03-2.39,16.6-2.55,2.78-7.16,4.16-13.82,4.16H6.24v19.16H0ZM6.24,23.76h12.18c4.03,0,6.89-.75,8.58-2.25,1.75-1.63,2.68-3.95,2.54-6.33.05-1.8-.47-3.58-1.49-5.06-.94-1.36-2.34-2.35-3.94-2.78-1.92-.35-3.87-.49-5.82-.42H6.24v16.84Z"/>
      <path class="cls-2" d="M41.02,31.41c0-6.32,1.76-11.01,5.27-14.05,2.99-2.55,6.81-3.9,10.74-3.79,4.31-.15,8.49,1.52,11.51,4.61,2.98,3.08,4.47,7.32,4.47,12.75,0,4.39-.66,7.85-1.98,10.37-1.29,2.49-3.29,4.53-5.75,5.87-2.52,1.39-5.36,2.11-8.25,2.09-4.34.18-8.55-1.5-11.59-4.6-2.95-3.06-4.42-7.48-4.42-13.24ZM46.96,31.41c0,4.37.95,7.64,2.86,9.82,3.46,3.96,9.47,4.37,13.44.92.33-.29.64-.6.93-.93,1.91-2.19,2.86-5.52,2.86-10,0-4.22-.96-7.42-2.88-9.6-3.47-3.97-9.49-4.37-13.46-.91-.32.28-.62.57-.89.89-1.91,2.17-2.86,5.44-2.86,9.81h0Z"/>
      <path class="cls-2" d="M79.66,48.48V1.35h5.79v47.13h-5.79Z"/>
      <path class="cls-2" d="M96.15,10.1l4.27-9h7.59l-7.07,9h-4.79ZM96.44,48.48V14.35h5.79v34.14h-5.79Z"/>
      <path class="cls-2" d="M125.34,43.31l.84,5.11c-1.44.32-2.9.49-4.37.51-1.69.09-3.37-.26-4.89-1-1.08-.58-1.94-1.5-2.44-2.62-.47-1.08-.71-3.36-.71-6.83v-19.64h-4.24v-4.5h4.24V5.89l5.76-3.47v11.93h5.82v4.5h-5.82v19.96c-.07,1.07.03,2.14.3,3.18.2.47.55.87,1,1.12.61.31,1.29.46,1.98.42.85-.02,1.7-.09,2.54-.23Z"/>
      <path class="cls-2" d="M131.03,8.01V1.35h5.78v6.65h-5.78ZM131.03,48.48V14.35h5.78v34.14h-5.78Z"/>
      <path class="cls-1" d="M142.9,47.61L152.82.68h9.82l-4.95,22.67,5.01-6.71,13.26-15.96h11.59l-19.07,22.47,9.34,24.46h-10.85l-6.77-19.01-4.01,2.25-3.5,16.76h-9.79Z"/>
      <path class="cls-1" d="M177.54,47.61L202.14.68h11.98l4.72,46.94h-9.54l-.77-11.17h-15.19l-5.52,11.17h-10.27ZM197.35,28.09h10.69l-.84-12.1c-.09-1.28-.17-2.58-.26-3.88-.09-1.31-.11-2.64-.07-4.01h-.16c-.41,1.18-.88,2.35-1.41,3.53-.54,1.18-1.14,2.43-1.8,3.76l-6.16,12.71Z"/>
      <path class="cls-1" d="M235.53,48.26c-2.18.02-4.35-.24-6.47-.77-1.76-.43-3.44-1.14-4.96-2.12v-8.8c1.82,1.04,3.74,1.89,5.73,2.55,1.86.61,3.81.92,5.76.91,1.02,0,2.04-.09,3.03-.31.86-.17,1.68-.49,2.42-.95.66-.4,1.21-.95,1.61-1.61.39-.68.59-1.46.58-2.25.04-1.07-.21-2.13-.72-3.07-.53-.87-1.2-1.65-1.99-2.29-.85-.71-1.82-1.47-2.94-2.28-1.34-.98-2.61-2.05-3.8-3.21-1.24-1.21-2.27-2.63-3.03-4.19-.83-1.75-1.23-3.67-1.19-5.6-.02-1.97.36-3.93,1.14-5.75.75-1.72,1.86-3.27,3.26-4.53,1.48-1.32,3.21-2.33,5.09-2.97C241.18.33,243.42-.03,245.68,0c2.27-.02,4.53.25,6.73.79,2.1.54,4.12,1.34,6.02,2.39l-3.5,7.48c-1.53-.74-3.13-1.34-4.77-1.78-1.46-.39-2.97-.59-4.48-.59-.82,0-1.64.12-2.42.37-.7.23-1.36.59-1.93,1.06-.54.45-.97,1.02-1.27,1.65-.31.69-.46,1.43-.45,2.18-.03,1,.21,1.98.69,2.86.52.85,1.19,1.6,1.99,2.2.87.67,1.91,1.42,3.13,2.23,1.6,1.02,3.05,2.24,4.32,3.64,1.11,1.24,1.98,2.67,2.57,4.22.58,1.62.87,3.32.85,5.04.05,2.22-.42,4.42-1.38,6.42-.89,1.79-2.19,3.34-3.8,4.53-1.69,1.23-3.59,2.14-5.62,2.68-2.23.6-4.53.9-6.83.88Z"/>
      <circle class="cls-2" cx="72.63" cy="65.96" r="5.28"/>
      <circle class="cls-2" cx="112.37" cy="65.96" r="5.28"/>
      <circle class="cls-2" cx="140.53" cy="76.52" r="5.28"/>
      <path class="cls-2" d="M141.29,78.03h-29.42v-10.56h-38.48v-1.51h39.99v10.56h27.91v1.51Z"/>
    </g>
  </g>
</svg>